<svg width="56" height="40" viewBox="0 0 56 40" fill="none" xmlns="http://www.w3.org/2000/svg">
<path d="M47.8716 10H40.3716V0H5.37164C2.62164 0 0.371643 2.25 0.371643 5V32.5H5.37164C5.37164 36.65 8.72164 40 12.8716 40C17.0216 40 20.3716 36.65 20.3716 32.5H35.3716C35.3716 36.65 38.7216 40 42.8716 40C47.0216 40 50.3716 36.65 50.3716 32.5H55.3716V20L47.8716 10ZM12.8716 36.25C10.7966 36.25 9.12164 34.575 9.12164 32.5C9.12164 30.425 10.7966 28.75 12.8716 28.75C14.9466 28.75 16.6216 30.425 16.6216 32.5C16.6216 34.575 14.9466 36.25 12.8716 36.25ZM46.6216 13.75L51.5216 20H40.3716V13.75H46.6216ZM42.8716 36.25C40.7966 36.25 39.1216 34.575 39.1216 32.5C39.1216 30.425 40.7966 28.75 42.8716 28.75C44.9466 28.75 46.6216 30.425 46.6216 32.5C46.6216 34.575 44.9466 36.25 42.8716 36.25Z" fill="#2C95E0"/>
</svg>
