<svg width="61" height="60" viewBox="0 0 61 60" fill="none" xmlns="http://www.w3.org/2000/svg">
<path d="M30.8716 5C17.0716 5 5.87164 16.2 5.87164 30C5.87164 43.8 17.0716 55 30.8716 55C44.6716 55 55.8716 43.8 55.8716 30C55.8716 16.2 44.6716 5 30.8716 5ZM34.3966 45.225V50H27.7216V45.175C23.4466 44.275 19.8216 41.525 19.5466 36.675H24.4466C24.6966 39.3 26.4966 41.35 31.0716 41.35C35.9716 41.35 37.0716 38.9 37.0716 37.375C37.0716 35.3 35.9716 33.35 30.3966 32.025C24.1966 30.525 19.9466 27.975 19.9466 22.85C19.9466 18.55 23.4216 15.75 27.7216 14.825V10H34.3966V14.875C39.0466 16 41.3716 19.525 41.5216 23.35H36.6216C36.4966 20.575 35.0216 18.675 31.0716 18.675C27.3216 18.675 25.0716 20.375 25.0716 22.775C25.0716 24.875 26.6966 26.25 31.7466 27.55C36.7966 28.85 42.1966 31.025 42.1966 37.325C42.1716 41.9 38.7466 44.4 34.3966 45.225Z" fill="#2C95E0"/>
</svg>
